<svg width="32" height="32" viewBox="0 0 32 32" fill="none" xmlns="http://www.w3.org/2000/svg">
<path d="M32 16C32 24.8366 24.8366 32 16 32C7.16344 32 0 24.8366 0 16C0 7.16344 7.16344 0 16 0C24.8366 0 32 7.16344 32 16Z" fill="url(#paint0_linear_7_4)"/>
<path d="M16.032 24.8577C16.032 25.6469 15.4493 26.2867 14.7305 26.2867C14.0117 26.2867 13.429 25.6469 13.429 24.8577C13.429 24.0685 14.0117 23.4287 14.7305 23.4287C15.4493 23.4287 16.032 24.0685 16.032 24.8577Z" fill="white"/>
<path d="M21.7583 24.8577C21.7583 25.6469 21.1756 26.2867 20.4568 26.2867C19.738 26.2867 19.1553 25.6469 19.1553 24.8577C19.1553 24.0685 19.738 23.4287 20.4568 23.4287C21.1756 23.4287 21.7583 24.0685 21.7583 24.8577Z" fill="white"/>
<path d="M18.2001 15.8689L18.9785 15.8692V17.8293C18.9785 18.6426 18.4932 19.3015 17.8255 19.392C17.5068 19.4372 17.1156 19.4598 16.652 19.4598C12.8478 19.4598 11.5891 14.3716 13.2208 11.0768L8.79516 8.27133C8.35946 7.9953 7.80225 8.15913 7.55072 8.63751C7.29906 9.11588 7.44841 9.72766 7.88411 10.004L9.5884 11.0844C7.99583 16.7919 10.8771 22.3052 16.4347 22.3052C17.5502 22.3052 18.5426 22.2226 19.4119 22.0568C19.6366 22.0146 19.8434 21.9689 20.0403 21.9189C20.2601 21.8631 20.4677 21.8025 20.6737 21.7369C21.2937 21.5402 21.7142 20.8461 21.7142 20.0702V13.6052C21.7142 13.2839 21.499 13.0235 21.2336 13.0235H15.8044C15.8044 13.0235 15.942 13.4631 16.2004 13.9967C16.5995 14.8209 17.2866 15.8689 18.2001 15.8689Z" fill="white"/>
<path d="M11.1625 8.14378C13.1834 5.90375 16.2689 5.67796 19.1037 5.71898C19.3907 5.72317 19.6773 5.72736 19.963 5.72875C20.0542 5.72903 20.117 5.83007 20.0835 5.92328C19.4632 7.64671 18.9215 8.44884 17.3039 8.57471C16.0464 8.57471 14.8668 9.03075 14.0032 9.94452L11.1625 8.14378Z" fill="white"/>
<defs>
<linearGradient id="paint0_linear_7_4" x1="6.93333" y1="1.14286" x2="33.7267" y2="26.15" gradientUnits="userSpaceOnUse">
<stop stop-color="#FF5E5F"/>
<stop offset="1" stop-color="#F54748"/>
</linearGradient>
</defs>
</svg>
